/* XPM */
static char *icon-32x32[] = {
/* width height ncolors chars_per_pixel */
"32 32 20 1",
/* colors */
"  c #000000",
". c #CBCBFF",
"X c #FFCC33",
"o c #666698",
"O c #777777",
"+ c #996600",
"@ c #555555",
"# c #111111",
"$ c #9898FF",
"% c #AAAAAA",
"& c #98A0C0",
"* c #FFFF33",
"= c #888888",
"- c #663300",
"; c #707070",
": c #FFFFFF",
"> c #CC9900",
", c #444444",
"< c #DDDDDD",
"1 c #222222",
/* pixels */
":::  ::::::::::::::  :::::::::::",
"::: O   ::::::::   # :::::::::::",
"::: @@,,        #### ::::::   ::",
"::: @,1#,,,,####   # ::::: :: ::",
"::: @,1#####       # :::: :<= ::",
"::: @,1#####       # ::: :<= :::",
"::: @,*#X#>> + + - # :: :<= ::::",
"::: @,*XX#>>>+ ++- # : :<= :::::",
"::: @,1X###>>   +  #  :<= ::::::",
"::: @,*XX#>>>+ ++- # :<=   :::::",
"::: @,11X### +   -  :<=  ..  :::",
"::: @,1XX###>+  +- :<=  .... :::",
"::: @,1X###>>   + :<=  ....  :::",
"::: @,*X##>>   + :<= $.... $ :::",
"::: @,*###>>    :<=  ....       ",
"::: @,*X###>>  :<= # ....:..:$$ ",
"::: @,1XX###> :<=  # o..:..:$$$ ",
"::: @ 1#X### :<= - #  .:..:$$$$ ",
":::  < XX## :<= +- # o:..:$&&$$ ",
":::  = X## :<= ++  # :..:       ",
"::::  = # :<=  +  # :..:$$ oooo ",
":::: , = :<=      # .. $$$$ ooo ",
"::::  , =<=      # .. o $$$$ oo ",
"::::   ,1= #     # .: oo $$  oo ",
"::::  ,1# =     # .:$ ooo  o    ",
":::: ,1# # =   # .:$$ ooo oo ;;;",
"::: ,1#  ## =<        ooo oo ;;:",
":   1# ::  #   o$.:$$  oo oo ;;:",
" <<%# :::::  ; o$.:$$ ; o o  ;;:",
" <%@ ::::::::; o$.:$$ ;;   ;;:::",
" %@@ ::::::::: o$.:$$ ;;;:::::::",
":   ::::::::::        ;;;:::::::"
};
