/* XPM */
static char *icon-16x16[] = {
/* width height ncolors chars_per_pixel */
"16 16 21 1",
/* colors */
"  c #000000",
". c #CBCBFF",
"X c #7F7F7F",
"o c #666698",
"O c #434343",
"+ c #3F3F3F",
"@ c #FFD200",
"# c #333333",
"$ c #D8D8D8",
"% c #D0D0D0",
"& c #1D1D1D",
"* c #151515",
"= c #FF6C00",
"- c #111111",
"; c #9898FF",
": c #505050",
"> c #FFFFFF",
", c #2A2A2A",
"< c #262626",
"1 c #080808",
"2 c #040404",
/* pixels */
">X>>>>>>> >>>>>>",
">X<:XXXO11>>>22>",
">X#&&&&& 1>>2$2>",
">X#@,@ = 1>2%2>>",
">X#@,@ = 12%2. >",
">X#@,@ = 2%2.  >",
">X#@,@ =2%2;    ",
">X#@,@ 2%2;..;; ",
">X#@,@2%21 .;;; ",
">*+@,2%221.;    ",
">2%22%2=2   ; o ",
">22%%2  1  o    ",
">>-2%2 2   o o >",
">2222%  ;;     >",
"222>222 ;; >  >>",
"22>>>>>    >>>>>"
};
